<svg id="visual" viewBox="0 0 900 600" width="900" height="600" xmlns="http://www.w3.org/2000/svg" xmlns:xlink="http://www.w3.org/1999/xlink" version="1.1"><path d="M0 163L75 158C150 153 300 143 450 139C600 135 750 137 825 138L900 139L900 0L825 0C750 0 600 0 450 0C300 0 150 0 75 0L0 0Z" fill="#444444"></path><path d="M0 223L75 215C150 207 300 191 450 187C600 183 750 191 825 195L900 199L900 137L825 136C750 135 600 133 450 137C300 141 150 151 75 156L0 161Z" fill="#3a3a3a"></path><path d="M0 337L75 332C150 327 300 317 450 316C600 315 750 323 825 327L900 331L900 197L825 193C750 189 600 181 450 185C300 189 150 205 75 213L0 221Z" fill="#303030"></path><path d="M0 385L75 385C150 385 300 385 450 387C600 389 750 393 825 395L900 397L900 329L825 325C750 321 600 313 450 314C300 315 150 325 75 330L0 335Z" fill="#262626"></path><path d="M0 463L75 464C150 465 300 467 450 472C600 477 750 485 825 489L900 493L900 395L825 393C750 391 600 387 450 385C300 383 150 383 75 383L0 383Z" fill="#202020"></path><path d="M0 505L75 507C150 509 300 513 450 517C600 521 750 525 825 527L900 529L900 491L825 487C750 483 600 475 450 470C300 465 150 463 75 462L0 461Z" fill="#1e1e1e"></path><path d="M0 547L75 549C150 551 300 555 450 557C600 559 750 559 825 559L900 559L900 527L825 525C750 523 600 519 450 515C300 511 150 507 75 505L0 503Z" fill="#1c1c1c"></path><path d="M0 601L75 601C150 601 300 601 450 601C600 601 750 601 825 601L900 601L900 557L825 557C750 557 600 557 450 555C300 553 150 549 75 547L0 545Z" fill="#1a1a1a"></path></svg>