<svg xmlns="http://www.w3.org/2000/svg" xmlns:xlink="http://www.w3.org/1999/xlink" viewBox="0 0 600 600" id="the-best-team-gets-the-trophy"><defs><linearGradient id="d" x1="300" x2="300" y1="179.71" y2="519.77" gradientUnits="userSpaceOnUse"><stop offset=".09" stop-color="#fff"></stop><stop offset="1" stop-color="#1a1a1a"></stop></linearGradient><linearGradient id="g" x1="300" x2="300" y1="179.71" y2="519.77" gradientUnits="userSpaceOnUse"><stop offset=".09" stop-color="#94b57f"></stop><stop offset="1" stop-color="#94b57f"></stop></linearGradient><linearGradient id="e" x1="390.06" x2="343.12" y1="290.74" y2="349.8" gradientTransform="matrix(-1 0 0 1 628.15 0)" gradientUnits="userSpaceOnUse"><stop offset="0" stop-color="#82a56b"></stop><stop offset=".99" stop-color="#d2edc3"></stop></linearGradient><linearGradient id="h" x1="368.59" x2="360.49" y1="339.85" y2="326.41" xlink:href="#e"></linearGradient><linearGradient id="i" x1="320.74" x2="338.97" y1="224.56" y2="224.56" gradientTransform="rotate(-7.59 1214.855 145.846)" xlink:href="#e"></linearGradient><linearGradient id="j" x1="326.71" x2="330.25" y1="237.53" y2="237.53" gradientTransform="rotate(-7.59 1214.855 145.846)" xlink:href="#e"></linearGradient><linearGradient id="k" x1="219.08" x2="238.17" y1="412.63" y2="412.63" gradientTransform="translate(-56.1 -63.9)" xlink:href="#e"></linearGradient><linearGradient id="l" x1="225.33" x2="229.04" y1="426.2" y2="426.2" gradientTransform="translate(-56.1 -63.9)" xlink:href="#e"></linearGradient><linearGradient id="m" x1="415.92" x2="427.57" y1="230.04" y2="230.04" gradientTransform="rotate(-4.24 2049.884 -243.725)" xlink:href="#e"></linearGradient><linearGradient id="n" x1="417.64" x2="421.18" y1="243.73" y2="243.73" gradientTransform="rotate(-4.24 2049.884 -243.725)" xlink:href="#e"></linearGradient><filter id="a" width="351.43" height="32766" x="124.29" y="-8492" color-interpolation-filters="sRGB" filterUnits="userSpaceOnUse"><feFlood flood-color="#fff" result="bg"></feFlood><feBlend in="SourceGraphic" in2="bg"></feBlend></filter><filter id="c" width="351.43" height="351.43" x="124.29" y="174.14" color-interpolation-filters="sRGB" filterUnits="userSpaceOnUse"><feFlood flood-color="#fff" result="bg"></feFlood><feBlend in="SourceGraphic" in2="bg"></feBlend></filter><mask id="f" width="351.43" height="351.43" x="124.29" y="174.14" maskUnits="userSpaceOnUse"><g filter="url(#c)" mask="url(#b)"><circle cx="300" cy="349.86" r="175.71" style="mix-blend-mode:multiply" fill="url(#d)"></circle></g></mask></defs><rect width="444.64" height="2.79" x="86.53" y="490.69" fill="#2b4f42" opacity=".5" transform="rotate(180 308.855 492.085)"></rect><g opacity=".25"><path fill="#2b4f42" d="M453.24 278.47a2.25 2.25 0 112.24 2.24A2.24 2.24 0 01453.24 278.47zM427.49 278.47a2.25 2.25 0 112.25 2.24A2.25 2.25 0 01427.49 278.47zM401.74 278.47a2.25 2.25 0 112.25 2.24A2.25 2.25 0 01401.74 278.47zM376 278.47a2.25 2.25 0 112.25 2.24A2.25 2.25 0 01376 278.47zM349.49 278.47a2.25 2.25 0 112.25 2.24A2.25 2.25 0 01349.49 278.47zM323.74 278.47a2.25 2.25 0 112.25 2.24A2.25 2.25 0 01323.74 278.47zM298 278.47a2.25 2.25 0 112.25 2.24A2.25 2.25 0 01298 278.47zM272.24 278.47a2.25 2.25 0 112.25 2.24A2.25 2.25 0 01272.24 278.47zM465.68 268.79a2.25 2.25 0 112.25 2.25A2.25 2.25 0 01465.68 268.79zM439.93 268.79a2.25 2.25 0 112.25 2.25A2.25 2.25 0 01439.93 268.79zM414.18 268.79a2.25 2.25 0 112.25 2.25A2.25 2.25 0 01414.18 268.79zM388.43 268.79a2.25 2.25 0 112.25 2.25A2.25 2.25 0 01388.43 268.79zM361.93 268.79a2.25 2.25 0 112.25 2.25A2.25 2.25 0 01361.93 268.79zM336.18 268.79a2.25 2.25 0 112.25 2.25A2.25 2.25 0 01336.18 268.79zM310.44 268.79a2.25 2.25 0 112.24 2.25A2.24 2.24 0 01310.44 268.79zM284.69 268.79a2.25 2.25 0 112.24 2.25A2.24 2.24 0 01284.69 268.79zM453.24 258.39a2.25 2.25 0 112.24 2.25A2.24 2.24 0 01453.24 258.39zM427.49 258.39a2.25 2.25 0 112.25 2.25A2.24 2.24 0 01427.49 258.39zM401.74 258.39a2.25 2.25 0 112.25 2.25A2.24 2.24 0 01401.74 258.39zM376 258.39a2.25 2.25 0 112.25 2.25A2.24 2.24 0 01376 258.39zM349.49 258.39a2.25 2.25 0 112.25 2.25A2.24 2.24 0 01349.49 258.39zM323.74 258.39a2.25 2.25 0 112.25 2.25A2.24 2.24 0 01323.74 258.39zM298 258.39a2.25 2.25 0 112.25 2.25A2.24 2.24 0 01298 258.39zM272.24 258.39a2.25 2.25 0 112.25 2.25A2.24 2.24 0 01272.24 258.39zM465.68 248.71a2.25 2.25 0 112.25 2.25A2.24 2.24 0 01465.68 248.71zM439.93 248.71a2.25 2.25 0 112.25 2.25A2.24 2.24 0 01439.93 248.71zM414.18 248.71a2.25 2.25 0 112.25 2.25A2.24 2.24 0 01414.18 248.71zM388.43 248.71a2.25 2.25 0 112.25 2.25A2.24 2.24 0 01388.43 248.71zM361.93 248.71a2.25 2.25 0 112.25 2.25A2.24 2.24 0 01361.93 248.71zM336.18 248.71a2.25 2.25 0 112.25 2.25A2.24 2.24 0 01336.18 248.71zM310.44 248.71a2.25 2.25 0 112.24 2.25A2.24 2.24 0 01310.44 248.71zM284.69 248.71a2.25 2.25 0 112.24 2.25A2.24 2.24 0 01284.69 248.71z"></path><circle cx="455.48" cy="238.32" r="2.25" fill="#2b4f42"></circle><path fill="#2b4f42" d="M427.49,238.32a2.25,2.25,0,1,1,2.25,2.24A2.25,2.25,0,0,1,427.49,238.32Z"></path><circle cx="403.99" cy="238.32" r="2.25" fill="#2b4f42"></circle><circle cx="378.24" cy="238.32" r="2.25" fill="#2b4f42"></circle><path fill="#2b4f42" d="M349.49 238.32a2.25 2.25 0 112.25 2.24A2.25 2.25 0 01349.49 238.32zM323.74 238.32a2.25 2.25 0 112.25 2.24A2.25 2.25 0 01323.74 238.32zM298 238.32a2.25 2.25 0 112.25 2.24A2.25 2.25 0 01298 238.32zM272.24 238.32a2.25 2.25 0 112.25 2.24A2.25 2.25 0 01272.24 238.32zM465.68 228.64a2.25 2.25 0 112.25 2.25A2.25 2.25 0 01465.68 228.64zM439.93 228.64a2.25 2.25 0 112.25 2.25A2.25 2.25 0 01439.93 228.64zM414.18 228.64a2.25 2.25 0 112.25 2.25A2.25 2.25 0 01414.18 228.64zM388.43 228.64a2.25 2.25 0 112.25 2.25A2.25 2.25 0 01388.43 228.64zM361.93 228.64a2.25 2.25 0 112.25 2.25A2.25 2.25 0 01361.93 228.64zM336.18 228.64a2.25 2.25 0 112.25 2.25A2.25 2.25 0 01336.18 228.64zM310.44 228.64a2.25 2.25 0 112.24 2.25A2.24 2.24 0 01310.44 228.64zM284.69 228.64a2.25 2.25 0 112.24 2.25A2.24 2.24 0 01284.69 228.64zM453.24 218.24a2.25 2.25 0 112.24 2.25A2.24 2.24 0 01453.24 218.24zM427.49 218.24a2.25 2.25 0 112.25 2.25A2.25 2.25 0 01427.49 218.24zM401.74 218.24a2.25 2.25 0 112.25 2.25A2.25 2.25 0 01401.74 218.24zM376 218.24a2.25 2.25 0 112.25 2.25A2.25 2.25 0 01376 218.24zM349.49 218.24a2.25 2.25 0 112.25 2.25A2.25 2.25 0 01349.49 218.24zM323.74 218.24a2.25 2.25 0 112.25 2.25A2.25 2.25 0 01323.74 218.24zM298 218.24a2.25 2.25 0 112.25 2.25A2.25 2.25 0 01298 218.24zM272.24 218.24a2.25 2.25 0 112.25 2.25A2.25 2.25 0 01272.24 218.24zM465.68 208.56a2.25 2.25 0 112.25 2.25A2.24 2.24 0 01465.68 208.56zM439.93 208.56a2.25 2.25 0 112.25 2.25A2.24 2.24 0 01439.93 208.56zM414.18 208.56a2.25 2.25 0 112.25 2.25A2.24 2.24 0 01414.18 208.56zM388.43 208.56a2.25 2.25 0 112.25 2.25A2.24 2.24 0 01388.43 208.56zM361.93 208.56a2.25 2.25 0 112.25 2.25A2.24 2.24 0 01361.93 208.56zM336.18 208.56a2.25 2.25 0 112.25 2.25A2.24 2.24 0 01336.18 208.56zM310.44 208.56a2.25 2.25 0 112.24 2.25A2.24 2.24 0 01310.44 208.56zM284.69 208.56a2.25 2.25 0 112.24 2.25A2.24 2.24 0 01284.69 208.56z"></path></g><g opacity=".25"><path fill="#2b4f42" d="M271.14 420a2.25 2.25 0 112.25 2.25A2.24 2.24 0 01271.14 420zM245.39 420a2.25 2.25 0 112.25 2.25A2.24 2.24 0 01245.39 420zM219.64 420a2.25 2.25 0 112.25 2.25A2.24 2.24 0 01219.64 420zM193.89 420a2.25 2.25 0 112.25 2.25A2.24 2.24 0 01193.89 420zM167.39 420a2.25 2.25 0 112.25 2.25A2.24 2.24 0 01167.39 420zM141.65 420a2.25 2.25 0 112.24 2.25A2.24 2.24 0 01141.65 420zM115.9 420a2.25 2.25 0 112.24 2.25A2.24 2.24 0 01115.9 420zM90.15 420a2.25 2.25 0 112.24 2.25A2.24 2.24 0 0190.15 420zM283.58 410.37a2.25 2.25 0 112.25 2.24A2.25 2.25 0 01283.58 410.37zM257.83 410.37a2.25 2.25 0 112.25 2.24A2.25 2.25 0 01257.83 410.37zM232.09 410.37a2.25 2.25 0 112.24 2.24A2.24 2.24 0 01232.09 410.37zM206.34 410.37a2.25 2.25 0 112.24 2.24A2.24 2.24 0 01206.34 410.37zM179.84 410.37a2.25 2.25 0 112.24 2.24A2.24 2.24 0 01179.84 410.37zM154.09 410.37a2.25 2.25 0 112.24 2.24A2.24 2.24 0 01154.09 410.37zM128.34 410.37a2.25 2.25 0 112.25 2.24A2.25 2.25 0 01128.34 410.37zM102.59 410.37a2.25 2.25 0 112.25 2.24A2.25 2.25 0 01102.59 410.37zM271.14 400a2.25 2.25 0 112.25 2.25A2.25 2.25 0 01271.14 400zM245.39 400a2.25 2.25 0 112.25 2.25A2.25 2.25 0 01245.39 400zM219.64 400a2.25 2.25 0 112.25 2.25A2.25 2.25 0 01219.64 400zM193.89 400a2.25 2.25 0 112.25 2.25A2.25 2.25 0 01193.89 400zM167.39 400a2.25 2.25 0 112.25 2.25A2.25 2.25 0 01167.39 400zM141.65 400a2.25 2.25 0 112.24 2.25A2.24 2.24 0 01141.65 400zM115.9 400a2.25 2.25 0 112.24 2.25A2.24 2.24 0 01115.9 400zM90.15 400a2.25 2.25 0 112.24 2.25A2.24 2.24 0 0190.15 400zM283.58 390.29a2.25 2.25 0 112.25 2.25A2.25 2.25 0 01283.58 390.29zM257.83 390.29a2.25 2.25 0 112.25 2.25A2.25 2.25 0 01257.83 390.29zM232.09 390.29a2.25 2.25 0 112.24 2.25A2.24 2.24 0 01232.09 390.29zM206.34 390.29a2.25 2.25 0 112.24 2.25A2.24 2.24 0 01206.34 390.29zM179.84 390.29a2.25 2.25 0 112.24 2.25A2.24 2.24 0 01179.84 390.29zM154.09 390.29a2.25 2.25 0 112.24 2.25A2.24 2.24 0 01154.09 390.29zM128.34 390.29a2.25 2.25 0 112.25 2.25A2.25 2.25 0 01128.34 390.29zM102.59 390.29a2.25 2.25 0 112.25 2.25A2.25 2.25 0 01102.59 390.29zM271.14 379.89a2.25 2.25 0 112.25 2.25A2.24 2.24 0 01271.14 379.89zM245.39 379.89a2.25 2.25 0 112.25 2.25A2.24 2.24 0 01245.39 379.89zM219.64 379.89a2.25 2.25 0 112.25 2.25A2.24 2.24 0 01219.64 379.89zM193.89 379.89a2.25 2.25 0 112.25 2.25A2.24 2.24 0 01193.89 379.89zM167.39 379.89a2.25 2.25 0 112.25 2.25A2.24 2.24 0 01167.39 379.89zM141.65 379.89a2.25 2.25 0 112.24 2.25A2.24 2.24 0 01141.65 379.89zM115.9 379.89a2.25 2.25 0 112.24 2.25A2.24 2.24 0 01115.9 379.89zM90.15 379.89a2.25 2.25 0 112.24 2.25A2.24 2.24 0 0190.15 379.89zM283.58 370.22a2.25 2.25 0 112.25 2.24A2.25 2.25 0 01283.58 370.22zM257.83 370.22a2.25 2.25 0 112.25 2.24A2.25 2.25 0 01257.83 370.22zM232.09 370.22a2.25 2.25 0 112.24 2.24A2.24 2.24 0 01232.09 370.22zM206.34 370.22a2.25 2.25 0 112.24 2.24A2.24 2.24 0 01206.34 370.22zM179.84 370.22a2.25 2.25 0 112.24 2.24A2.24 2.24 0 01179.84 370.22zM154.09 370.22a2.25 2.25 0 112.24 2.24A2.24 2.24 0 01154.09 370.22zM128.34 370.22a2.25 2.25 0 112.25 2.24A2.24 2.24 0 01128.34 370.22zM102.59 370.22a2.25 2.25 0 112.25 2.24A2.25 2.25 0 01102.59 370.22zM271.14 359.82a2.25 2.25 0 112.25 2.24A2.25 2.25 0 01271.14 359.82zM245.39 359.82a2.25 2.25 0 112.25 2.24A2.25 2.25 0 01245.39 359.82zM219.64 359.82a2.25 2.25 0 112.25 2.24A2.25 2.25 0 01219.64 359.82zM193.89 359.82a2.25 2.25 0 112.25 2.24A2.25 2.25 0 01193.89 359.82zM167.39 359.82a2.25 2.25 0 112.25 2.24A2.25 2.25 0 01167.39 359.82zM141.65 359.82a2.25 2.25 0 112.24 2.24A2.24 2.24 0 01141.65 359.82zM115.9 359.82a2.25 2.25 0 112.24 2.24A2.24 2.24 0 01115.9 359.82zM90.15 359.82a2.25 2.25 0 112.24 2.24A2.24 2.24 0 0190.15 359.82zM283.58 350.14a2.25 2.25 0 112.25 2.25A2.25 2.25 0 01283.58 350.14zM257.83 350.14a2.25 2.25 0 112.25 2.25A2.25 2.25 0 01257.83 350.14zM232.09 350.14a2.25 2.25 0 112.24 2.25A2.24 2.24 0 01232.09 350.14zM206.34 350.14a2.25 2.25 0 112.24 2.25A2.24 2.24 0 01206.34 350.14zM179.84 350.14a2.25 2.25 0 112.24 2.25A2.24 2.24 0 01179.84 350.14zM154.09 350.14a2.25 2.25 0 112.24 2.25A2.24 2.24 0 01154.09 350.14zM128.34 350.14a2.25 2.25 0 112.25 2.25A2.25 2.25 0 01128.34 350.14zM102.59 350.14a2.25 2.25 0 112.25 2.25A2.25 2.25 0 01102.59 350.14z"></path></g><g opacity=".5"><path fill="#cce7bb" d="M483.41,390.77a61.88,61.88,0,0,0-28.6,29.7c-3.93,8.37-5.38,17.63-8.74,26.22-4,10.19-12.19,15.23-20.48,21.72-7.1,5.55-14.12,11.57-19,19.17-.64,1-1.24,2-1.81,3.07h33.9c9.54-5.85,19.88-10.32,27-19.29,7.48-9.46,9.59-21.85,10.95-33.49,1.06-9.06,1.87-18.33,5.07-26.94,3.34-9,8.76-17.13,14.37-24.83A55.44,55.44,0,0,0,483.41,390.77Z"></path><path fill="#95cb62" d="M476.4,349.24a41.75,41.75,0,0,0-7.17-11.38c-5.84,15.21-13.15,28.07-24.46,39.94-7.8,8.18-16.13,16-22.17,25.59a47,47,0,0,0-7.66,24.53c-.11,10.31,4.58,20,6.53,30a142.54,142.54,0,0,1,2.47,32.79h22.84c10.56-14.45,14.7-33.32,12.33-51-.49-3.64-1.26-7.27-1.26-10.94,0-14.78,14.9-28.35,19.66-42A51.28,51.28,0,0,0,476.4,349.24Z"></path></g><g opacity=".5"><path fill="#cce7bb" d="M113.71,380.86a68,68,0,0,1,31.45,32.64c4.32,9.21,5.9,19.39,9.6,28.82,4.4,11.2,13.4,16.74,22.51,23.87,7.8,6.11,15.53,12.72,20.93,21.08.7,1.09,1.37,2.21,2,3.37H162.93c-10.49-6.42-21.86-11.34-29.65-21.2-8.22-10.4-10.54-24-12-36.82-1.17-9.95-2.06-20.14-5.58-29.61-3.67-9.87-9.63-18.83-15.79-27.29A60.72,60.72,0,0,1,113.71,380.86Z"></path><path fill="#95cb62" d="M115.3,313.54a52.5,52.5,0,0,1,9-14.25c7.32,19,16.47,35.16,30.63,50,9.77,10.26,20.2,20.08,27.76,32.06,6,9.42,9.47,19.91,9.59,30.71.15,12.91-5.73,25-8.17,37.59a178.33,178.33,0,0,0-3.1,41.06H152.4C139.16,472.62,134,449,137,426.91c.61-4.56,1.57-9.1,1.58-13.7,0-18.51-18.67-35.5-24.63-52.56A64.32,64.32,0,0,1,115.3,313.54Z"></path></g><g mask="url(#f)"><circle cx="300" cy="349.86" r="175.71" fill="url(#g)"></circle></g><path fill="#ffbe9d" d="M278.1,490l.16,3.46s5.22-.28,5.2-.59-.91-4.25-.91-4.25Z"></path><path fill="#1e4677" d="M283.13,491.9s18,3.11,16.94,7.63c-1,4.07-13.18,1.29-19-.29a4.28,4.28,0,0,1-3.16-4l-.13-3.14Z"></path><path fill="#ffbe9d" d="M231.7,492.15l-.16,3.46s-5.22-.28-5.2-.59.91-4.25.91-4.25Z"></path><path fill="#1e4677" d="M233.19,495.9l-.48-3.1-7.87.51-3,3.61s-6.19,4.49-5.21,6.28c1.26,2.25,10.24-1.39,10.24-1.39l4.43-2.29A3.48,3.48,0,0,0,233.19,495.9Z"></path><path fill="#393767" d="M283.68,489.14a3.59,3.59,0,0,1-1.39,1.75c-1.36.74-3.73.48-5.16,0-1.22-7.73-5.67-28.46-10-47.78-4-17.83-8-34.47-9.35-38.62-2,11.28-7,38-7.21,38.61-2.6,9.28-12.39,31.4-16.46,49.58a8.92,8.92,0,0,1-2.5.92,11.41,11.41,0,0,1-5.78-1.24c2.14-14.93,10.3-79.29,10.59-89.3-1.34-4.11.74-21.79,6.78-36.94,0,0,14.3,3.81,22.66,3.74a45.47,45.47,0,0,0,9.87-.88s1.76,17.79,2.44,27.42c1.2,10.95,4.15,37.42,4.16,38.05C282.55,444.12,282.2,470.57,283.68,489.14Z"></path><path fill="#231f20" d="M267.09,443.14c-4-17.83-8-34.47-9.35-38.62l5.07-13.93Z" opacity=".31"></path><path fill="#fff" d="M240.43,341c2.28,6.91-6,25.32-1.08,31.44,5.37,6.64,30.43,2.29,34.14,1.43s4-1.83,2.46-7.82c-1.11-4.25,2.16-23.07,2.2-37.7,0-6-.52-11.29-2.11-14.59a6.85,6.85,0,0,0-3.53-3.18,18.77,18.77,0,0,0-8-1.2c-8-1.91-13.28-1.41-16.88.4a12.78,12.78,0,0,0-4.85,4.26,25.18,25.18,0,0,0-4.2,13A38.36,38.36,0,0,0,240.43,341Z"></path><path fill="#f69982" d="M273.12 290s1.71.37.72 2.85-2.22 2.55-2.22 2.55S270.53 290 273.12 290zM253.36 290s-1.71.37-.73 2.85 2.22 2.55 2.22 2.55S256 290 253.36 290z"></path><path fill="#f3ab9c" d="M253.7,311.35s1.81,5.15,6.06,6.3a7.65,7.65,0,0,0,7.14-1.85l.57-7.89.29-4.1-11.61-1.19-.71,2.56Z"></path><path fill="#f69982" d="M255.44,305.18a8.57,8.57,0,0,0,3.81,4.1c3.58,1.93,6.31.81,8.22-1.37l.29-4.1-11.61-1.19Z"></path><path fill="#f3ab9c" d="M272.35,295.21c0,.81-.06,1.59-.12,2.28a14.38,14.38,0,0,1-2,5.89c-.23.38-.48.75-.75,1.12-2.17,2.85-5.61,4.75-10.41,2.55-5.6-2.56-6.1-8.47-5.82-13h0c.07-1,.18-1.95.27-2.76v-.05a19,19,0,0,0,.22-2.5,5.6,5.6,0,0,1,1.38-4.08c6.41,3.57,17.13,1.09,17.13,1.09S272.49,291,272.35,295.21Z"></path><path fill="#182856" d="M262.78,276.51s7.27-.22,10.11,5.68,0,10.13,0,10.13-.77,2.23-.81.88-.83-7.07-.83-7.07-1.94,1.28-6,1.06A61.93,61.93,0,0,1,255,285.25s-.83,6.64-1.45,6a7.12,7.12,0,0,1-1.17-3.81C252.37,285.32,252,276.07,262.78,276.51Z"></path><path fill="#f3ab9c" d="M299.71 305.23c-1.32 1.11-5.85 5-8.36 7.66-3.05-4.76-5.3-8.43-8-13.39l3.8-5.53-4.38-34.27a14.3 14.3 0 01-4.29-8.92 1.77 1.77 0 010-.23 6.77 6.77 0 010-1c.24-5.31 4.44-6.57 6-5.21a8 8 0 011.32 2.32s3 6.77 2.31 8.51C287.64 256.37 303.73 301.87 299.71 305.23zM246.74 249.09a6.49 6.49 0 01-.29 1 6.26 6.26 0 01-.3.73c-.35.75-.71 1.47-1.08 2.14-.15.28-.3.56-.45.82a37.61 37.61 0 01-3.79 5.55l-10.35 39.09 3.55 3.05c-3.25 4.55-4.37 8.53-6.48 13.71-3.48-3.36-9.83-7.53-10.85-9.5-4.29-8.36 20.1-49.63 19.78-50.48-.66-1.74 2.62-9.26 2.62-9.26a9 9 0 011.43-2.14C242.08 242.43 247.85 244.05 246.74 249.09z"></path><path fill="#fff" d="M233.26 300.23l14.4 9.54a12.78 12.78 0 00-4.85 4.26 25.18 25.18 0 00-4.2 13c-3.21-2.69-8.54-7.26-13.19-11.66A74.14 74.14 0 01233.26 300.23zM283.38 298.21c2.76 4.9 6.09 9.49 9.11 14.24-5 5.31-10.92 12-14.34 15.89 0-6-.52-11.29-2.11-14.59a6.85 6.85 0 00-3.53-3.18z"></path><path fill="url(#e)" d="M267.52,309.37a7.89,7.89,0,0,1,2.23,10.09c-3.14,6.28-7.52,20.41-7.52,20.41s-11.65-13.64-11.48-21.82,3.88-9.83,3.88-9.83l-.41,1.57s-2.4,3.47-2.07,6.28,9.59,20.66,9.59,20.66,5.2-14.88,6.11-18.27-.58-7.19-.58-7.43S267.52,309.37,267.52,309.37Z"></path><circle cx="261.99" cy="341.36" r="3.03" fill="#efba48"></circle><path fill="#fc9e17" d="M259.62,341.36A2.37,2.37,0,1,0,262,339,2.37,2.37,0,0,0,259.62,341.36Z"></path><polygon fill="url(#h)" points="261.74 336.73 262.76 338.33 264.96 331.6 265.07 326.92 261.74 336.73"></polygon><path fill="#182856" d="M257.89,303.32a5,5,0,0,1,5.73-2.34,7.32,7.32,0,0,1,3.85,2.28c-1.34,1-3.4,2.32-6.06,1.58A10.7,10.7,0,0,1,257.89,303.32Zm12-3.38c-.79-.43-3.69-2-4.86-2-1.35,0-6.71-.21-6.71-.21l-2.82,1.64a30.66,30.66,0,0,0-2.3-5.34c-.28,4.51.22,10.42,5.82,13,4.8,2.2,8.24.3,10.41-2.55.27-.37.52-.74.75-1.12a14.42,14.42,0,0,0,1.95-5.77c.06-.69.1-1.47.12-2.28C272.11,295.18,271,297.74,269.91,299.94Z" opacity=".24"></path><path fill="#f3ab9c" d="M280.55 256.29s-5.78-1.19-3.41-4.45 2.37-.15 2.37-.15zM243.57 255.14s5.78-1.18 3.41-4.44-2.37-.15-2.37-.15z"></path><path fill="#e28474" d="M280.76 254.16l-.11 0a.5.5 0 01-.12-1 1.79 1.79 0 001.45-2 .79.79 0 00-.36-.53c-.75-.48-2.33-.29-3.19-.12a6.77 6.77 0 010-1 5.75 5.75 0 013.72.29A1.77 1.77 0 01283 251 2.74 2.74 0 01280.76 254.16zM243.38 250.78a1.79 1.79 0 001.45 2 .43.43 0 01.24.15.48.48 0 01.13.46.51.51 0 01-.49.38l-.09 0h0a2.74 2.74 0 01-2.2-3.15 1.77 1.77 0 01.8-1.18 5.51 5.51 0 013.54-.32 6.49 6.49 0 01-.29 1 4.59 4.59 0 00-2.71.2A.79.79 0 00243.38 250.78z"></path><path fill="#f6bb9b" d="M368.3,459.07l4.85,1.9s.54,2.93-1,4.78l-6.49-1.93Z"></path><path fill="#f27e0a" d="M373,476.34c-.37-3.74-1.07-15.45-1.07-15.45a1.78,1.78,0,0,1,1.23-2,20.4,20.4,0,0,1,5.39.18,2,2,0,0,1,1.71,2.19c-.66,5.13-2.45,18.76-3,19.38S373.39,480.07,373,476.34Z"></path><path fill="#2e2e5b" d="M339.68,388l-17.87-1.35s-14.09,48.07-6.33,53.8,50.78,25,50.78,25l3.29-8-36.27-23.61Z"></path><path fill="#f6bb9b" d="M340.65,485.39l.51,5.18s-2.36,1.81-4.72,1.27l-1.23-6.66Z"></path><path fill="#f27e0a" d="M327.42,497.44c3.16-2,13.27-8,13.27-8a1.79,1.79,0,0,1,2.36.17c.69.71,1.66,3.15,2.3,4.89a1.94,1.94,0,0,1-1.17,2.51c-4.87,1.75-17.83,6.35-18.62,6.18C324.59,503,324.26,499.46,327.42,497.44Z"></path><path fill="#393767" d="M356.2,387.64s5.74,6.41-1.34,20.24S341,442.94,341,442.94l.67,43.16h-8.09l-5.73-52.94L334.62,388Z"></path><path fill="#f3ab9c" d="M357.17 329.39s24.1-6.37 29-8.83 18-12.48 28.27-14.06l.5-9.43s2.81 0 2.49 3.9c0 0 11.33-4.92 12.4-4.08s.39 11.69-11.31 13.85c0 0-18.27 16.06-28.51 18.95l-33.68 10.76zM333.87 326.85s-23.73 7.66-29.18 8.24-21.87-.79-31.39 3.44l-5.51-7.67s-2.37 1.51 0 4.63c0 0-13.55-.62-13.49.75.28 6.27 13.82 10.71 17.85 8.07 0 0 23.1 2.71 33.28-.39l32.71-4z"></path><path fill="#fff" d="M343,323.6,331.24,327l-2.63,9.51s-2.24,22.22-3.49,27.26c-1.94,7.83-8,24.82-8,24.82a44,44,0,0,1,22.76,3.71c16.29,7.3,21.15.95,21.15.95s-2-34.81,2.73-49c4.21-12.63-2.84-17.49-2.84-17.49l-11.48-3.3Z"></path><path fill="#fff" d="M362.15 341.88l10.75-.79s4.17-4.81-2-16.46l-15.12 1zM333.18 327.24c-4.71-1.75-18.71 5-19.59 4.52 0 0 .66 12.23 5 14.94C318.55 346.7 350.88 333.82 333.18 327.24z"></path><path fill="#f69982" d="M337.49,328.77c.39-3.61,4.68-6.09,9.58-5.56s8.56,3.88,8.17,7.49-6.83,5.85-9.59,5.55S337.09,332.37,337.49,328.77Z"></path><path fill="url(#i)" d="M350.81,322.53c-4.68-.76-12.33,1.32-13.47,4.41-1.31,3.69,7.21,27.74,8.9,32.5l1.88-.66-.05-.4c-4.84-13.58-9.48-28.74-8.77-30.8.42-1.12,3.74-2.62,7.19-3.08a11.71,11.71,0,0,1,3.93.05c2.84.43,2.87,1.9,2.94,2.38.06,5.39-6.78,26.63-7.68,30.92l2.42,1c.18-1.09,7.3-25.79,7.22-31.91C355.3,325.53,354.73,323.15,350.81,322.53Z"></path><polygon fill="url(#j)" points="346.61 354.12 348.12 358.78 349.91 352.08 348.11 348.86 346.61 354.12"></polygon><path fill="#efba48" d="M346,358.09a4,4,0,1,0,5.28,2.21A4.05,4.05,0,0,0,346,358.09Z"></path><path fill="#fc9e17" d="M346.37,358.9a3.17,3.17,0,1,0,4.12,1.74A3.18,3.18,0,0,0,346.37,358.9Z"></path><path fill="#f69982" d="M356.71 308s1.56.28.73 2.56-1.95 2.38-1.95 2.38S354.35 308 356.71 308zM338.73 308.49s-1.55.37-.59 2.6 2.09 2.26 2.09 2.26S341.09 308.42 338.73 308.49z"></path><path fill="#f3ab9c" d="M339.6,327.91s1.79,4.64,5.68,5.57a6.94,6.94,0,0,0,6.45-1.87l.31-7.2.16-3.74-10.6-.77-.58,2.35Z"></path><path fill="#f69982" d="M341,322.25a7.86,7.86,0,0,0,3.58,3.63c3.31,1.66,5.76.57,7.44-1.47l.16-3.74-10.6-.77Z"></path><path fill="#f3ab9c" d="M355.79,304.14s-9.69,2.54-15.62-.54a5.11,5.11,0,0,0-1.15,3.75c.2,2.31-2.61,13.15,5.33,16.51s11.53-5.12,11.75-9A105.53,105.53,0,0,0,355.79,304.14Z"></path><path fill="#fc9e17" d="M354.6,300.48l1.42-.4s1.34-5-5.2-5-13,2.17-9.31,5.82S354.6,300.48,354.6,300.48Z"></path><path fill="#fc9e17" d="M356.29,300.87a8,8,0,0,0-.84-1.29c1.92-4-3.92-7.95-8.54-8.33-3.17-.25-3.83,2.8-3.87,5.24-5.73,1.86-5.33,8.08-5.31,9.7a6.49,6.49,0,0,0,1.16,3.44c.58.56,1.17-5.5,1.17-5.5a56.12,56.12,0,0,0,9.4,1.49c3.72.09,5.44-1.12,5.44-1.12s.88,5.18,1,6.41.71-.82.71-.82S359,306.17,356.29,300.87Z"></path><path fill="#f3ab9c" d="M176.15,269.58c.23.9-4.78,6.43-6.4,7.16-.13.06-10.66,39.29-10.66,39.29l3.4,2.93c-3.11,4.37-4.19,8.19-6.22,13.16-3.33-3.23-9.43-7.23-10.41-9.12-3.24-6.31,18.13-46.4,18.13-46.4a38.32,38.32,0,0,1,2.15-9.39c2.31-6.33,8.41-3.12,8.58-1a5.57,5.57,0,0,1-.2,1.43,7.68,7.68,0,0,1-.28,1v0S175.93,268.68,176.15,269.58Z"></path><path fill="#e28474" d="M170.23,268.42a2.74,2.74,0,0,0,1.57,3.51h0s.06,0,.09,0a.51.51,0,0,0,.55-.28.46.46,0,0,0,0-.47.38.38,0,0,0-.21-.2,1.79,1.79,0,0,1-1-2.23.81.81,0,0,1,.46-.45,4.35,4.35,0,0,1,2.63.3,7.68,7.68,0,0,0,.28-1,5.13,5.13,0,0,0-3.28-.27A1.76,1.76,0,0,0,170.23,268.42Z"></path><path fill="#f3ab9c" d="M200.51,325.89s22.16,11.39,27.44,12.84,21.69,2.74,30.39,8.45l6.67-6.66s2.1,1.87-.76,4.55c0,0,13.47,1.59,13.19,2.92-1.29,6.14-15.37,8.34-18.91,5.08,0,0-23.21-1.06-32.74-5.76l-31.62-9.21Z"></path><path fill="#fff" d="M201.13,326.39c4.93-1,17.64,8,18.59,7.62,0,0-2.64,11.95-7.31,13.93C212.41,347.94,182.62,330,201.13,326.39Z"></path><path fill="#f6bb9b" d="M152.94,425.59l-5-1.46s-2.22,2-2.12,4.39l6.3,2.45Z"></path><path fill="#393767" d="M138.64,436.33c2.57-2.73,10.3-11.54,10.3-11.54a1.77,1.77,0,0,0,.27-2.35c-.56-.8-2.77-2.22-4.36-3.17a2,2,0,0,0-2.69.68c-2.62,4.45-9.56,16.31-9.54,17.12C132.65,438.06,136.06,439.05,138.64,436.33Z"></path><path fill="#2e2e5b" d="M186.27,388.09l17.86-1.35s15.16,62,7.41,67.71-62-22.91-62-22.91l2.36-7.41,40.76,9.77Z"></path><path fill="#f6bb9b" d="M185.3,485.4l-.5,5.18s2.36,1.81,4.71,1.27l1.23-6.66Z"></path><path fill="#393767" d="M198.53 497.45c-3.16-2-13.27-8-13.27-8a1.77 1.77 0 00-2.36.17c-.68.7-1.65 3.14-2.29 4.88a2 2 0 001.17 2.51c4.87 1.74 17.81 6.34 18.6 6.17C201.35 503 201.68 499.47 198.53 497.45zM169.77 387.75s-5.73 6.4 1.34 20.21 13.81 35 13.81 35l-.67 43.12h8.09l5.72-52.89-6.73-45.14z"></path><path fill="#fff" d="M170,355.2c2.37,7.21-2.48,34.15-2.48,34.15s31.26.15,35.13-.75,2.38.15.74-6.1c-1.16-4.43,2.25-24.07,2.29-39.33,0-6.25-.54-11.77-2.2-15.21a7.18,7.18,0,0,0-3.68-3.32,19.51,19.51,0,0,0-8.31-1.25c-8.37-2-13.85-1.47-17.61.42a13.39,13.39,0,0,0-5.06,4.44c-2.85,4.07-5.79,9.09-4.39,13.59C166.28,347.8,168.72,351.35,170,355.2Z"></path><path fill="url(#k)" d="M192.58,321.16c-4.81-1.27-13,.14-14.48,3.26-1.73,3.71,4.76,29.61,6.05,34.74l2-.5v-.42c-3.69-14.63-7-30.89-6.08-33,.55-1.13,4.16-2.37,7.8-2.5a12.25,12.25,0,0,1,4.09.44c2.92.74,2.8,2.27,2.82,2.78-.46,5.62-9.71,27.07-11.07,31.45l2.42,1.27c.3-1.12,10.17-26.16,10.7-32.54C197,324.73,196.6,322.19,192.58,321.16Z"></path><polygon fill="url(#l)" points="185.06 353.66 186.17 358.66 188.71 351.87 187.15 348.33 185.06 353.66"></polygon><path fill="#efba48" d="M184.06,357.74a4.24,4.24,0,1,0,5.29,2.83A4.23,4.23,0,0,0,184.06,357.74Z"></path><path fill="#fc9e17" d="M184.33,358.62a3.32,3.32,0,1,0,4.13,2.22A3.31,3.31,0,0,0,184.33,358.62Z"></path><path fill="#f69982" d="M200.42 303.18s1.79.37.76 3-2.32 2.66-2.32 2.66S197.72 303.18 200.42 303.18zM179.81 303.18s-1.78.37-.75 3 2.31 2.66 2.31 2.66S182.52 303.18 179.81 303.18z"></path><path fill="#f3ab9c" d="M180.16,325.45s1.9,5.37,6.33,6.57a8,8,0,0,0,7.45-1.92l.59-8.24.3-4.28-12.11-1.24L182,319Z"></path><path fill="#f69982" d="M182,319a9,9,0,0,0,4,4.28c3.73,2,6.58.84,8.57-1.44l.3-4.28-12.11-1.24Z"></path><path fill="#f3ab9c" d="M199.49,298.76s-11.17,2.59-17.86-1.14a5.87,5.87,0,0,0-1.45,4.26c.15,2.66-3.42,15,5.56,19.09s13.38-5.48,13.75-10A118.65,118.65,0,0,0,199.49,298.76Z"></path><path fill="#182856" d="M189.64,289.11s7.58-.23,10.54,5.93,0,10.57,0,10.57-.8,2.32-.84.91-.87-7.37-.87-7.37-2,1.33-6.27,1.1a64.64,64.64,0,0,1-10.72-2s-.87,6.93-1.52,6.26a7.48,7.48,0,0,1-1.22-4C178.78,298.31,178.41,288.65,189.64,289.11Z"></path><path fill="#182856" d="M198.26,294.53l1.64-.41s1.7-5.68-5.8-5.95-14.92,2.06-10.84,6.36S198.26,294.53,198.26,294.53Z"></path><path fill="#182856" d="M205.22,301a2.58,2.58,0,0,0-1.7-2.43,1.5,1.5,0,0,0,0-.22A1.86,1.86,0,0,0,203,297a2.32,2.32,0,0,0-.46-3,2.52,2.52,0,0,0,.55-1.57,2.57,2.57,0,0,0-2.57-2.56h-.1a2.85,2.85,0,0,0,0-.41,3.24,3.24,0,0,0-3.24-3.24,3.17,3.17,0,0,0-1.64.47c0-.05,0-.09,0-.13a4,4,0,0,0-8.08,0,3.09,3.09,0,0,0-1.65-.48,3.15,3.15,0,0,0-3.08,2.5,2.21,2.21,0,0,0-1.92-1.23,2.46,2.46,0,0,0-2.28,2.61,2.89,2.89,0,0,0,.12.78,2.73,2.73,0,0,0-2.13,2.88,3.65,3.65,0,0,0,.08.74,3.35,3.35,0,0,0,.08,4.32,3.37,3.37,0,0,0-1,2.49,3.27,3.27,0,0,0,1.24,2.68,2.22,2.22,0,0,0-.16.82,2.19,2.19,0,1,0,3.33-1.86,3.64,3.64,0,0,0,.38-1.64,3.26,3.26,0,0,0-1.25-2.68,3.07,3.07,0,0,0,.6-1.37,4,4,0,0,0,6.3,2.93,2.73,2.73,0,0,0,3.09-.2,2.68,2.68,0,0,0,.89,1.72,2.71,2.71,0,0,0,3.83-.25,2.5,2.5,0,0,0,.35-.52,2.92,2.92,0,0,0,.6.77,2.72,2.72,0,1,0-.24-3.83,2.55,2.55,0,0,0-.36.52,2.88,2.88,0,0,0-.59-.77,2.72,2.72,0,0,0-3.48-.08,2.66,2.66,0,0,0-2.74-2.38,4,4,0,0,0-6.25-1.36.43.43,0,0,1,0-.05,3.4,3.4,0,0,0-.18-1.08,2.39,2.39,0,0,0,1.94-1.91,3.14,3.14,0,0,0,5.93-1,4.07,4.07,0,0,0,2.58,1,4,4,0,0,0,2.46-.86,3.22,3.22,0,0,0,3.21,3,3.66,3.66,0,0,0,.75-.09,2.57,2.57,0,0,0,1,1.87,2.39,2.39,0,0,0-.37,1.27,2.35,2.35,0,0,0,1.25,2.07,2,2,0,0,0-.08.49,1.92,1.92,0,0,0,.6,1.38A2.62,2.62,0,0,0,200,301a2.53,2.53,0,0,0,.29,1.17,2,2,0,1,0,2.48,1.91,1.86,1.86,0,0,0-.06-.48A2.59,2.59,0,0,0,205.22,301Z"></path><path fill="#fff" d="M161.54,317.17l13.82,9.16a12.17,12.17,0,0,0-4.64,4.08,24.13,24.13,0,0,0-4,12.51c-3.08-2.58-8.2-7-12.66-11.19A71.18,71.18,0,0,1,161.54,317.17Z"></path><path fill="#ffce00" d="M211.51,387.54c-.45,14.93,15.76,35.51,40.12,54.09,4.64,3.19,3.87,6,1.89,7.56a1.62,1.62,0,0,0-.63,1.25,1.56,1.56,0,0,0,.16.7h0l.84,1.75h0l.51-.24-.51.25h0l.25.53.11.23.49-.08.1,0,.47-.13a6,6,0,0,0,1.3-.63,7.63,7.63,0,0,0,1.19-1,7,7,0,0,0,.84-1l.18-.26.18-.28a7.61,7.61,0,0,0,.45-.85c1.23-2.73,1-6.44-2.59-10-19.35-18.46-38.12-30.21-40.27-51.87a22.63,22.63,0,0,1,1.53-7.76c.12-.31.25-.6.39-.88,5-10.07,17.65-5.35,17.18,6.78,0,.11,0,.22,0,.33v.17c0,.07,0,.14,0,.21l0,.39v0l0,.27a3.74,3.74,0,0,0,3.67,4.16h0C244,358.52,210.43,363.33,211.51,387.54Zm24.06-11.05-2-1.72-.82-.72a9.45,9.45,0,0,0-11.1-.9,9.47,9.47,0,0,1,11.1.89l.78.68h0C234.81,375.82,235.48,376.4,235.57,376.49Zm19.33,75.87q.38-.24.72-.51Q255.27,452.12,254.9,452.36Z"></path><path fill="#dd970a" d="M215,387.71c.62,12,9.09,25.17,25.19,39.07l16.08,14,0,.06c3,3.62,2.19,6.75,1.44,8.29a7.63,7.63,0,0,1-4.08,3.32l.19.41h0l.24.53.11.23a4.53,4.53,0,0,0,.49-.08l.1,0,.47-.13a6,6,0,0,0,1.3-.63,7.63,7.63,0,0,0,1.19-1,8.73,8.73,0,0,0,.84-1l.18-.26.18-.28a7.61,7.61,0,0,0,.45-.85c1.25-2.75,1-6.49-2.56-10.08-19.35-18.46-38.12-30.21-40.27-51.87a22.41,22.41,0,0,1,1.5-7.7c.12-.31.25-.6.39-.88,4.94-10.13,17.66-5.39,17.18,6.78,0,.11,0,.22,0,.33v.17a1.49,1.49,0,0,1,0,.21c0,.13,0,.26,0,.39v0l0,.27a3.67,3.67,0,0,0,1,3c1-6.66,0-12.11-3-15.35l0,0h0a10.31,10.31,0,0,0-.75-.73,9.5,9.5,0,0,0-11.43-.7C217.07,375.94,214.75,381.2,215,387.71Z"></path><path fill="#ffce00" d="M303.51,450a7.62,7.62,0,0,0,.42.86l.17.28.18.27a7.92,7.92,0,0,0,.81,1,6.4,6.4,0,0,0,1.18,1,5.76,5.76,0,0,0,1.28.66l.46.15.11,0,.48.09.1-.2.28-.55h0c-.17-.08-.33-.16-.5-.26l.5.26h0l.88-1.73h0a1.62,1.62,0,0,0-.42-2c-1.94-1.57-2.64-4.43,2.07-7.5,24.81-18,41.51-38.17,41.42-53.11,1.56-22.7-27.83-29-28.15-2.5a42.74,42.74,0,0,0,.32,5.58,3.77,3.77,0,0,0,2.71-1.1,3.67,3.67,0,0,0,1.08-3,2.45,2.45,0,0,1,0-.27s0,0,0,0,0-.25,0-.38a1.62,1.62,0,0,1,0-.22v-.16c0-.11,0-.22,0-.33-.17-12.14,12.62-16.55,17.34-6.37.13.29.25.58.37.89a22.58,22.58,0,0,1,1.34,7.79c-2.67,21.61-21.73,32.9-41.51,50.89C302.68,443.55,302.35,447.26,303.51,450ZM331.2,375.9l.79-.66a9.5,9.5,0,0,1,11.44-.42,12.12,12.12,0,0,1,2.16,1.82,11.34,11.34,0,0,0-2.16-1.81,9.48,9.48,0,0,0-11.44.42l-.84.7-2,1.67,2.06-1.71Zm-23.93,76.57a7.15,7.15,0,0,0,.7.53A7.15,7.15,0,0,1,307.27,452.47Z"></path><path fill="#dd970a" d="M303.51,450a7.62,7.62,0,0,0,.42.86l.17.28.18.27a7.92,7.92,0,0,0,.81,1,7.77,7.77,0,0,0,1.18,1,5.76,5.76,0,0,0,1.28.66l.46.15.11,0a2.73,2.73,0,0,0,.48.1l.1-.21.27-.55h0l.2-.41a7.56,7.56,0,0,1-4-3.42c-.72-1.56-1.45-4.7,1.64-8.25l0-.06,16.42-13.64c16.43-13.5,25.22-26.44,26.12-38.44.43-6.5-1.76-11.82-6-14.57a9.47,9.47,0,0,0-11.43.42,8.63,8.63,0,0,0-.77.71h0l0,0c-3,3.17-4.2,8.59-3.35,15.28a3.67,3.67,0,0,0,1.08-3,2.45,2.45,0,0,1,0-.27s0,0,0,0a2.34,2.34,0,0,1,0-.38,1.62,1.62,0,0,1,0-.22v-.16c0-.12,0-.22,0-.33-.18-12.18,12.65-16.62,17.34-6.37.13.29.25.58.37.89a22.84,22.84,0,0,1,1.31,7.73c-2.67,21.6-21.72,32.9-41.51,50.89C302.64,443.5,302.32,447.24,303.51,450Z"></path><path fill="#fc9e17" d="M232.81,358.5l0,1.63a3.35,3.35,0,0,0,3.22,3.4h.1c2,83.41,35,94,38.66,99s4.88,13.51-.29,23.53c-3.26,6.34-13.21,9.33-20.08,10.67a8.72,8.72,0,0,0-7,8.45l66.87.81a8.72,8.72,0,0,0-6.83-8.62c-6.84-1.5-16.71-4.74-19.82-11.15-4.92-10.15-3.51-18.67.29-23.53,2.85-3.63,22.25-10.06,33.46-48.2,3.74-12.71,6.57-28.95,7.57-49.79a3.36,3.36,0,0,0,3.41-3.32l0-1.63a3.36,3.36,0,0,0-3.32-3.4l-92.8-1.12A3.35,3.35,0,0,0,232.81,358.5Z"></path><path fill="#f27e0a" d="M274.77,462.48c3.68,4.95,4.88,13.51-.29,23.53-3.26,6.34-13.21,9.33-20.08,10.67a8.72,8.72,0,0,0-7,8.45l14.71.18a48.34,48.34,0,0,1,8.91-8.06c11.15-8,10.1-40.21,10.1-40.21s-31.18-22.59-36.47-81.59l73.13-12.08-81.62-1s0,.4-.11,1.15h.1C238.11,446.94,271.09,457.54,274.77,462.48Z"></path><rect width="7.2" height="10.44" x="311.85" y="354.4" fill="#ffce00" transform="rotate(-89.31 315.428 359.616)"></rect><path fill="#ffce00" d="M317.71,365.52s1.76,63.49-20.11,85.36c0,0,8.16-20.28,8.95-85.61Z"></path><path fill="#393767" d="M377.62 494.5c3.47-1.43 12.06-6.13 12.06-6.13A1.77 1.77 0 01392 489c.55.82 1.08 3.39 1.4 5.22a2 2 0 01-1.6 2.27c-5.1.86-16 2.44-16.72 2.13C374.14 498.19 374.16 495.94 377.62 494.5zM410.62 493.29c3.47-1.44 10.13-6.63 10.13-6.63a1.77 1.77 0 012.29.58c.55.82 1.08 3.39 1.4 5.21.19 1.07-.62 1.79-1.6 2.27-4.79 2.35-9.5 3.78-13.64 3.57C408.2 498.24 407.16 494.72 410.62 493.29z"></path><path fill="#ffb9b0" d="M410 327.76c-.07-.82.45-5.41.45-5.41l-8.24 1.21s.09 4.15-.55 4.42a15.94 15.94 0 01-2.68.83l0 8.59 11.44-1.73 7.88-4.38S410.08 328.58 410 327.76zM347.19 344.63c0 .49-.78.91-.28 1.93 1.1 2.29 4.53 5.46 8.63 4 .18.06 22.67 13.06 24.41 13.06s13.53-11.17 17.39-25c.92-3.29.57-7.17-2.52-8.84a7.28 7.28 0 00-4.25 3.78C388 338.4 380.36 354.38 378.66 355c-2.12-1.41-12.42-4.47-20.76-8a5.69 5.69 0 01-3.23-2.7c-.62-1.23-.39-2.91-2.85-4.06-.58-.26-1.24 1.2-1.05 1.69s-3.54-.53-3.86.8C346.85 342.89 347.21 344.38 347.19 344.63z"></path><path fill="#fff" d="M398.21,341.63l-2.49-12.25a10.13,10.13,0,0,0-6.72,5.21,18.49,18.49,0,0,0-.91,2.1c-1.2,3.05-2.85,5.81-4,8.85a18,18,0,0,0,5.29,2.55,11.16,11.16,0,0,0,4.92.66,2.28,2.28,0,0,0,.83-.18,2.65,2.65,0,0,0,.86-.74q.78-.88,1.5-1.8a4.91,4.91,0,0,0,1-1.72A5.24,5.24,0,0,0,398.21,341.63Z"></path><g opacity=".5"><path fill="#82a56b" d="M392.77,337.71a1,1,0,0,1,.39-.33.7.7,0,0,1,.81.36,1.86,1.86,0,0,1,.17.94,12.88,12.88,0,0,1-.58,3.64l.38,6.43h0a11.12,11.12,0,0,1-4.61-.67c-.69-.26-1.44-.52-2.2-.83C387.9,343.64,390.37,340.57,392.77,337.71Z"></path></g><path fill="#ffb9b0" d="M419.8,443.52v0c3,14.4,1.59,34.19,2.27,45-.08,0,.34,1.1-1.71,1.27s-2.42-.73-2.42-.73-9.4-45.71-11.1-54.46a11.33,11.33,0,0,1-.22-1.7c-.41-6.58,5.53-6.92,8.87-1.47a21.33,21.33,0,0,1,1.53,2.94c.19.43.37.86.55,1.32v0a42.86,42.86,0,0,1,1.48,4.6l0,.16c.14.47.25.93.37,1.4l0,.11C419.59,442.53,419.7,443,419.8,443.52Z"></path><path fill="#ffb9b0" d="M402,391.82c.11,1.19.75,6.86,1.51,13.55.65,5.63,1.37,12,1.93,17,.41,3.77.71,6.77.84,8.18a17.4,17.4,0,0,0,.33,2.43v0c1.43,6.57,6,6.95,8.74,5.43a5.27,5.27,0,0,0,1.05-.72,3.53,3.53,0,0,0,1.17-1.93v0c.18-1.35.35-3.19.51-5.39v0s0,0,0,0l0-.05c.33-4.27.62-9.77.87-15.12.3-6.58.49-12.92.54-16.5,0-.2,0-.4,0-.59.05-11-10-18-16.29-14.58l-.22.11a1.62,1.62,0,0,1-.24.14c-.71.48-.95,2.11-1,4C401.82,389.09,401.92,390.58,402,391.82Z"></path><path fill="#ffb9b0" d="M417.34 433.19l.77-2.87v0a46.14 46.14 0 001 10l0 .16c.11.46.23.94.37 1.4l0 .11a8.24 8.24 0 01.32 1.47v0c0 1.3-2.77-4.48-3.4-5.83l-.13-.27.75-3zM395.64 446.27v0c.29 15.08-4.37 32.82-5.6 43.77a4.08 4.08 0 01-1.45 1.07 5.89 5.89 0 01-2.47 0s-.58-47.76-.63-56.89a15.15 15.15 0 01.09-1.74c.75-6.65 6.15-5.51 8.23.73a27 27 0 01.88 3.31c.1.47.18.95.27 1.45v0c.25 1.55.43 3.21.54 4.94v.18c0 .49.06 1 .09 1.47v.12C395.62 445.23 395.63 445.74 395.64 446.27z"></path><path fill="#ffb9b0" d="M392.51,440.12a4.2,4.2,0,0,0,1.06-.46A3,3,0,0,0,395,438h0c.4-1.3.87-3.12,1.39-5.26v0l0-.06c1-4.16,2.22-9.55,3.35-14.81,1.38-6.46,2.64-12.73,3.28-16.28.05-.19.61-2.78.65-3,1.93-11-6.66-18.2-12.91-16.1l-.24.09c-1.26.5-1.61,4.92-1.89,7.9s-2.4,33.92-2.93,39.52a19.71,19.71,0,0,0-.11,2.5C385.73,439.43,389.75,440.94,392.51,440.12Z"></path><path fill="#ffb9b0" d="M395.18,435.38l1.18-2.66v0A51,51,0,0,0,395.5,443v.18c0,.47,0,1,.09,1.47v.12a9.72,9.72,0,0,1,0,1.54v0c-.21,1.3-1.73-5.14-2.07-6.64,0-.19-.07-.3-.07-.3l1.19-2.81Z"></path><path fill="#393767" d="M414.33,370.66s8.08,10.27,7.25,20.59c-.34,4.3-.87,8.08-1.36,12.41-.07.62-.62,28.43-.35,28.44,0,0,.88,7.32,3.49,49,.37,5.91-5.29,6-7.32,5.93-.26,0-12.72-71.78-13-71.79s-1.87,11-3.83,24.4c-3,20.46-6.9,48.11-7.23,48.09-4.61-.31-2.47.36-7.5-1.75,0-1.1-1.68-98.23,9.61-116.55A140.85,140.85,0,0,0,414.33,370.66Z"></path><path fill="#fff" d="M389,346.94c.07,2.94,1.63,4.73,3.88,7.21.28.44,1,7,1.22,11.37.12,2.27-.85,3.69,0,3.88,3.23,2.82,14.88,5.1,20.22,1.25-.56-4.74,1.57-15.19,3-20.5.23-.82.42-1.51.6-2,1.34-4,3.75-17,2-17.54l-1.55-.45c-2.79-.84-6.92-2.29-6.92-2.29s-2.42,7.16-8.71,8c-3.44-1.42-3.13-5.76-3.09-7.76-1.12.31-1.62.62-5.1,1.65-1,1.41-.14,4.35-1.71,8.72C392.41,339.55,388.93,343.35,389,346.94Z"></path><path fill="#ffb9b0" d="M461,341.39,458,337.77l-18.56,16.6s-9.06-12.07-11.56-15.83c-2.74-4.15-5.21-7.69-9.22-8.38-.92.57.32,15.44.8,15.8,5.6,4.19,16.5,17.71,20,18.41C443.37,365.18,461,341.39,461,341.39Z"></path><path fill="#fff" d="M417.24,329.5s3.79.05,5.43,1.39,9.42,13.69,9.42,13.69a5.48,5.48,0,0,1-2,4.29,11.41,11.41,0,0,1-5.61,2.43s-3.91-3.89-6.12-5.66c-1.37-1.11-1.51,1.63-1.51,1.63l-6.89-6.74Z"></path><path fill="#ffb9b0" d="M466.72,334.43c-.71-1.35-1.55-3.08-3.32-3.42-1.17-.23-.63.14-1.73.59a5.47,5.47,0,0,0-3,3c-.36.94-.43,2-.73,2.92s-4.66,4.46-4.66,4.46l4.25,2.83s3.07-3.48,3.68-3.5C461.48,341.3,469.73,340.21,466.72,334.43Z"></path><path fill="#ffb9b0" d="M465.35,331.94a9,9,0,0,0-1.07-1.15,1.46,1.46,0,0,0-.65-.43,2,2,0,0,0-1.39.32,2.54,2.54,0,0,0-1.15,1.14,1.51,1.51,0,0,0,.84,1.82.39.39,0,0,1,.16.15.52.52,0,0,1-.11.36,2.56,2.56,0,0,0-.44,1.49.86.86,0,0,0,1,.77c.23,0,.53-.12.6,0a.31.31,0,0,1,0,.19,1.57,1.57,0,0,0,.35,1.26.42.42,0,0,0,.27.18.75.75,0,0,0,.29,0,4,4,0,0,0,1-.45l1.3-1.16A6,6,0,0,0,465.35,331.94Z"></path><path fill="url(#m)" d="M464.22,331.87c-3.71-3-8.31-2.58-9.06,4.81-.4,3.89.93,26.91,2.35,31.77l1.91-.55,0-.41c-4-13.84-2.38-28.16-1.55-30.17.49-1.09.11-3.64,2-3.74,1.38-.07.68-.16,1.84.16,2.81.6,2.15,6.3,2.19,6.79-.25,5.38-5.64,22.06-6.79,26.29l2.36,1.13c.25-1.08,6.54-22.67,6.81-28.79C466.26,337.78,466.41,333.63,464.22,331.87Z"></path><polygon fill="url(#n)" points="458.18 363.15 459.42 367.9 461.6 361.32 459.98 358 458.18 363.15"></polygon><path fill="#efba48" d="M457.37,367.08a4.05,4.05,0,1,0,5.14,2.52A4.07,4.07,0,0,0,457.37,367.08Z"></path><path fill="#fc9e17" d="M457.66,367.92a3.17,3.17,0,1,0,4,2A3.16,3.16,0,0,0,457.66,367.92Z"></path><path fill="#ffb9b0" d="M463.68 330.47s-1.63 4.28-1.1 6.08.78 3 2.81 2.06C470.3 336.41 463.68 330.47 463.68 330.47zM461.79 330.34a.45.45 0 00-.33-.39.66.66 0 00-.41.12 5.34 5.34 0 00-2.53 4.39 23.17 23.17 0 01-.35 2.34l2.05 1.29c1-.14 1.37-1.49 1.39-2.32a6.47 6.47 0 00-.62-2.72c-.24-.57.54-1.61.72-2.17A1.1 1.1 0 00461.79 330.34z"></path><path fill="#182856" d="M403.39,311.55c-.7-2.28-1.72-4.81-4-5.64l-5.92,1.54c-2.09,3.61-.28,8.55-2.39,12.14-.85,1.45-2.28,2.58-2.68,4.2a3.66,3.66,0,0,0,5.26,4.12,4.11,4.11,0,0,1,.81-.41c1-.3,2,.62,2.88,1.24a4.42,4.42,0,0,0,3.8.67c1.62-.54,2.62-2.18,3.16-3.8C405.86,321.08,404.79,316.12,403.39,311.55Z"></path><path fill="#ffb9b0" d="M395.44,305.12s-2.16,9.52-.79,13.72c1,3.11,5.17,6,8.65,6,9.58,0,11.29-13,11.24-13.64s-14.12-6.09-14.12-6.09Z"></path><path fill="#182856" d="M422.78,321.17c-.63-1.18-1.82-1.95-2.63-3a9.29,9.29,0,0,1-1.55-5.24,35,35,0,0,0-.37-5.52c-.67-3.09-1.55-6-3.93-8-3.68-3.07-10.9-4.92-15.15-1.87-1.15-1.21-5.08-4.74-7.66.19-1.27,2.44-1.32,4.08-.95,5.16a2.41,2.41,0,0,0-.1,1,6.37,6.37,0,0,0,2.6,3.78,3.08,3.08,0,0,0,1.47.33c1.62,0,3-1,4.56-.85a3,3,0,0,1,2,1.11c.58.7.5,1.69,1.17,2.35s2.08.66,2.39,1.57c.83,2.4,2.36,2.6,2.38,3.24.63-.28.7-1.18,1.22-1.63a1.43,1.43,0,0,1,1.82.12,3,3,0,0,1,.88,1.75,5,5,0,0,1-.35,2.4c-.42,1.36-1.59,2.59-2.54,1.69-.68,1,.07,2.69.09,3.83,0,.9,0,2.7-.84,3.29s-2,.13-2.06,1.54a2.71,2.71,0,0,0,2.53,2.45,9.38,9.38,0,0,0,3.78-.66,6,6,0,0,1,3.79-.18,11.19,11.19,0,0,0,2.13,1,3.32,3.32,0,0,0,2.08-.49c.21-.11.42-.24.62-.36a5.22,5.22,0,0,0,2.57-2.59C423.39,325.67,423.71,322.92,422.78,321.17Z"></path><path fill="#fff" d="M372.64 216a10.8 10.8 0 00-10.71 9.45A10.82 10.82 0 00351.21 216a10.81 10.81 0 0010.72-9.45A10.79 10.79 0 00372.64 216zM343.45 212.07a5.1 5.1 0 00-5.05 4.46 5.1 5.1 0 00-5-4.46 5.09 5.09 0 005-4.45A5.09 5.09 0 00343.45 212.07zM374.29 243.17a19.33 19.33 0 00-19.16 16.9A19.33 19.33 0 00336 243.17a19.32 19.32 0 0019.17-16.9A19.32 19.32 0 00374.29 243.17z"></path></svg>